<?xml version="1.0" encoding="UTF-8"?>
<!DOCTYPE svg PUBLIC "-//W3C//DTD SVG 1.1//EN" "http://www.w3.org/Graphics/SVG/1.1/DTD/svg11.dtd">
<svg version="1.1" xmlns="http://www.w3.org/2000/svg" xmlns:xlink="http://www.w3.org/1999/xlink" x="0" y="0" width="538" height="660" viewBox="0, 0, 538, 660">
  <defs>
    <clipPath id="Clip_1">
      <path d="M0.06,0.428 L537.717,0.428 L537.717,659.94 L0.06,659.94 z"/>
    </clipPath>
  </defs>
  <g id="Layer_1">
    <g clip-path="url(#Clip_1)">
      <path d="M128.803,571.33 C118.211,566.477 111.409,559.28 107.156,549.667 C106.022,547.105 103.755,548.025 101.919,548.022 C71.925,547.972 41.931,547.987 11.937,547.986 C10.604,547.986 9.265,548.06 7.939,547.956 C2.953,547.563 -0.089,544.527 0.002,540.115 C0.096,535.574 3.001,533.009 8.348,533.004 C38.009,532.974 67.67,532.904 97.33,533.086 C101.536,533.112 102.779,532.297 103,527.741 C103.723,512.836 110.521,501.03 123.27,493.036 C125.629,491.557 125.9,490.231 125.146,487.889 C121.833,477.611 118.593,467.31 115.389,456.998 C113.547,451.067 114.973,448.374 120.876,446.464 C125.299,445.033 129.671,443.304 134.203,442.389 C139.762,441.268 142.802,438.278 145.12,433.073 C153.758,413.672 165.487,396.131 178.987,379.561 C173.205,376.144 167.495,372.812 161.837,369.397 C160.41,368.537 159.425,369.003 158.252,369.87 C132.758,388.71 106.961,383.681 82.106,369.342 C58.314,355.616 45.114,333.021 36.441,307.745 C26.074,277.534 25.957,246.521 31.62,215.504 C41.464,161.587 64.051,113.466 101.362,73.199 C137.19,34.533 181.606,10.07 234.002,2.646 C280.086,-3.883 324.473,4.235 366.677,23.948 C420.315,49.002 455.896,90.95 479.324,144.282 C483.47,153.718 487.002,163.383 490.199,173.176 C490.636,174.515 490.488,175.984 492.851,175.917 C504.371,175.593 509.041,180.224 509.253,191.803 C509.265,192.461 509.322,193.119 509.379,194.165 C515.867,192.253 522.631,189.817 527.61,196.343 C532.617,202.905 530.51,209.896 527.628,216.69 C538.224,219.231 539.766,226.281 535.524,236.426 C530.309,248.897 520.571,257.904 509.564,265.436 C506.977,267.207 505.926,268.969 505.984,272.24 C506.322,291.309 504.823,310.196 497.976,328.219 C486.723,357.837 464.142,373.741 434.018,380.138 C430.067,380.977 427.347,382.489 424.921,385.957 C404.674,414.901 383.32,442.993 359.182,468.859 C357.462,470.702 356.787,472.485 357.045,475.063 C358.867,493.278 360.67,511.498 362.119,529.745 C362.457,534.01 365.02,532.962 367.273,532.964 C405.932,532.999 444.592,532.989 483.251,532.989 C494.916,532.989 506.58,532.97 518.244,532.998 C523.441,533.011 526.709,535.607 527.008,539.838 C527.318,544.214 523.894,547.595 518.708,547.967 C517.381,548.062 516.043,547.986 514.71,547.986 C409.397,547.986 304.085,547.986 198.773,547.987 C193.14,547.987 193.14,547.991 194.846,553.412 C197.432,561.632 197.433,561.585 205.908,561.642 C225.247,561.772 244.496,562.987 263.495,566.857 C266.768,567.523 269.773,566.326 272.849,565.828 C317.685,558.564 362.042,560.722 405.944,572.345 C408.79,573.099 410.883,574.571 412.396,577.313 C425.559,601.175 438.844,624.969 452.117,648.769 C453.765,651.723 454.578,654.723 452.267,657.59 C450.126,660.244 447.305,660.208 444.105,659.442 C412.919,651.978 381.276,648.197 349.213,647.621 C321.998,647.133 295.025,649.155 268.368,654.737 C264.707,655.503 261.408,654.385 258.036,653.798 C224.71,648.001 191.192,647.193 157.534,649.619 C133.441,651.355 109.541,654.479 85.949,659.753 C83.077,660.395 80.598,659.835 78.782,657.501 C76.968,655.169 76.93,652.584 78.362,650.007 C92.004,625.461 105.68,600.934 119.266,576.358 C121.165,572.924 124.59,572.734 128.803,571.33" fill="#6E4100"/>
    </g>
    <path d="M110.523,255.26 C105.421,206.276 117.169,161.819 147.142,122.648 C161.457,103.94 180.24,90.572 201.777,81.04 C204,80.056 205.3,80.252 206.937,81.989 C242.053,119.236 286.084,140.767 334.692,154.087 C339.212,155.326 342.346,157.022 344.946,161.358 C349.829,169.499 358.389,171.688 367.343,172.173 C376.37,172.663 385.29,171.349 394.184,170.091 C397.682,169.596 399.081,170.207 399.48,174.172 C400.362,182.924 401.444,191.707 404.279,200.122 C406.736,207.418 410.496,213.748 417.637,217.42 C419.251,218.251 420.139,219.346 420.375,221.223 C420.644,223.356 420.973,225.588 421.849,227.518 C425.382,235.308 422.636,241.878 418.233,248.215 C415.871,248.701 414.687,246.745 413.092,245.692 C403.155,239.131 392.565,235.5 380.579,238.714 C364.154,243.117 353.514,263.108 359.138,279.076 C362.979,289.982 369.165,298.908 380.656,303.015 C382.063,303.518 383.543,304.086 383.288,306.078 C367.766,329.364 350.498,351.315 332.456,372.679 C331.046,374.349 329.291,374.933 327.355,375.496 C300.649,383.266 273.394,385.008 245.819,382.732 C223.105,380.858 201.157,375.915 180.742,365.356 C152.978,350.996 133.538,329.109 121.913,300.175 C123.942,298.652 125.736,300.091 127.53,300.711 C132.899,302.565 138.37,303.421 144.051,304.053 C159.763,305.8 175.656,287.24 175.73,273.348 C175.8,260.134 167.086,243.697 152.145,238.816 C139.51,234.689 124.831,240.543 116.314,253.237 C115.573,254.341 114.984,255.549 114.119,256.567 C113.486,257.313 112.863,258.351 111.772,258.151 C110.134,257.849 111.214,256.122 110.523,255.26" fill="#FEF8EA"/>
    <path d="M259.168,532.791 C239.017,532.863 218.865,532.86 198.716,533.076 C195.166,533.114 195.08,531.418 195.257,528.763 C196.481,510.345 197.628,491.922 198.802,473.501 C198.887,472.173 199.139,470.837 199.063,469.52 C198.849,465.769 197.1,462.987 193.163,462.67 C189.09,462.343 186.546,464.382 186.113,468.673 C185.713,472.63 185.91,476.818 184.624,480.476 C182.88,485.433 179.972,489.982 177.114,495.588 C176.301,493.438 175.706,492.067 175.259,490.649 C170.316,474.952 166.083,458.98 160.137,443.674 C157.685,437.361 159.22,433.384 161.912,428.385 C169.519,414.259 178.563,401.138 188.455,388.541 C190.879,385.455 193.042,385.081 196.893,386.038 C205.771,388.245 211.702,390.884 210.898,402.454 C210.27,411.493 216.85,418.492 225.661,421.943 C228.702,423.134 230.553,425.002 232.151,427.654 C241.082,442.479 250.105,457.249 259.109,472.03 C263.708,479.581 268.603,479.512 273.202,471.797 C282.152,456.787 291.089,441.77 299.963,426.716 C301.272,424.494 302.765,422.858 305.25,421.767 C315.348,417.333 319.884,409.155 320.113,398.396 C320.298,389.691 320.717,389.299 329.088,391.032 C331.974,391.63 334.299,390.603 336.194,388.405 C371.614,347.316 403.896,304.015 429.195,255.841 C431.234,251.96 432.644,250.957 436.802,253.282 C449.723,260.505 462.888,267.296 476.019,274.138 C478.469,275.414 479.63,276.328 477.864,279.298 C440.298,342.498 400.478,404.152 350.563,458.49 C343.288,466.41 343.636,473.723 344.525,482.451 C346.109,498.009 347.563,513.58 349.146,529.138 C349.41,531.732 349.065,533.089 345.892,533.066 C321.41,532.889 296.928,532.869 272.446,532.8 C271.741,531.509 272.389,530.203 272.394,528.903 C272.411,524.991 269.832,522.1 266.168,521.88 C262.475,521.659 259.936,524.159 259.54,528.382 C259.402,529.851 259.884,531.372 259.168,532.791" fill="#579CD7"/>
    <path d="M144.266,53.957 C169.574,34.263 198.2,21.191 229.674,16.536 C293.099,7.156 350.977,21.973 402.014,61.194 C425.751,79.436 443.357,102.981 457.403,129.257 C459.41,133.012 461.908,136.559 463.209,141.376 C455.304,139.872 447.907,137.924 440.242,138.132 C435.415,138.263 430.499,137.751 425.784,138.518 C421.861,139.157 421.008,137.766 420.475,134.459 C418.581,122.701 414.884,111.543 408.74,101.272 C408.058,100.131 407.324,99.015 406.535,97.946 C394.472,81.583 378.547,80.897 365.107,96.201 C362.584,99.074 360.04,101.977 357.918,105.142 C355.89,108.168 354.542,108.253 352.082,105.472 C338.913,90.584 327.087,74.747 317.31,57.415 C316.574,56.111 315.888,54.776 315.111,53.497 C313.056,50.112 309.907,49.094 306.535,50.74 C302.864,52.531 301.789,56.004 303.659,59.632 C306.323,64.803 309.272,69.849 312.405,74.753 C321.924,89.654 332.384,103.848 344.831,116.475 C347.261,118.94 348.201,121.074 346.372,124.624 C344.262,128.716 342.69,133.251 341.833,137.773 C341.126,141.506 340.12,142.24 336.468,141.192 C316.271,135.394 296.606,128.256 277.922,118.583 C250.249,104.257 225.669,86.071 206.582,61.079 C204.228,57.997 201.291,56.262 197.527,58.36 C193.833,60.419 193.281,63.753 195.093,67.35 C196.655,70.45 193.774,70.325 192.517,70.909 C174.803,79.149 159.156,90.257 145.653,104.368 C122.439,128.627 108.838,157.875 101.361,190.235 C98.741,201.572 96.39,212.982 96.29,224.701 C96.271,226.976 95.857,228.255 92.974,228.347 C77.549,228.839 70.072,234.828 67.781,249.762 C66.132,260.503 66.164,271.436 72.297,281.226 C78.961,291.861 89.208,295.236 101.024,294.498 C104.427,294.285 105.985,294.721 107.147,298.103 C114.971,320.879 127.426,340.73 145.481,356.811 C148.943,359.894 148.58,361.47 144.778,363.519 C140.795,365.666 136.75,367.439 132.217,367.927 C114.229,366.289 101.564,355.74 90.957,342.429 C75.586,323.137 68.638,300.215 64.15,276.425 C56.84,237.685 61.87,200.263 76.004,163.705 C86.932,135.438 100.811,108.805 118.188,83.983 C124.216,75.372 131.078,67.434 137.881,59.451 C139.7,57.318 142.036,55.673 144.266,53.957" fill="#DCAE53"/>
    <path d="M433.858,643.54 C421.217,641.442 409.452,639.351 397.578,637.922 C354.498,632.736 311.592,633.132 268.848,641.167 C261.152,642.613 253.743,639.724 246.233,638.758 C216.054,634.878 185.83,634.475 155.53,636.689 C136.113,638.108 116.817,640.509 97.575,644.039 C96.979,642.201 98.29,641.154 98.93,639.993 C108.408,622.814 118.002,605.699 127.414,588.484 C128.899,585.769 130.678,584.186 133.752,583.619 C139.304,582.594 144.829,581.375 150.303,579.99 C152.709,579.381 154.125,579.582 154.515,582.325 C155.051,586.095 157.616,588.363 160.498,590.531 C167.017,595.436 173.348,600.589 179.855,605.512 C185.557,609.826 189.74,608.476 191.926,601.664 C194.463,593.757 196.921,585.823 199.29,577.865 C199.945,575.663 200.873,574.559 203.414,574.617 C223.03,575.066 242.676,575.126 261.813,580.372 C263.861,580.934 265.796,580.466 267.735,580.092 C310.545,571.824 353.107,573.085 395.501,583.099 C399.919,584.142 402.51,586.25 404.666,590.266 C413.788,607.259 423.31,624.036 432.678,640.897 C432.987,641.455 433.203,642.064 433.858,643.54" fill="#FEFEFE"/>
    <path d="M144.266,53.957 C136.935,63.173 128.704,71.644 121.85,81.26 C94.287,119.928 73.304,161.723 64.952,208.749 C57.712,249.511 63.482,289.047 82.084,326.218 C92.595,347.219 108.714,362.189 132.216,367.927 C102.377,370.966 80.545,357.733 64.041,334.065 C46.283,308.599 39.889,279.757 41.313,249.334 C44.366,184.117 69.63,128 112.998,79.682 C121.265,70.471 131.003,62.915 140.652,55.255 C141.81,54.336 142.938,54.046 144.266,53.957" fill="#FEFEFE"/>
    <path d="M469.761,160.569 C456.898,166.099 451.487,178.12 444.054,189.011 C439.786,183.474 435.518,177.661 427.553,179.654 C419.69,181.622 418.553,188.63 416.873,196.261 C413.957,187.726 413.489,179.761 412.257,171.952 C411.661,168.178 411.162,164.378 410.32,160.658 C409.24,155.89 406.13,154.125 401.388,155.349 C390.701,158.106 379.79,159.12 368.812,159.145 C356.961,159.172 351.921,153.717 354.349,142.206 C357.858,125.57 366.995,111.908 379.706,100.787 C384.331,96.741 388.096,97.245 392.478,101.753 C401.191,110.718 404.489,122.267 407.21,134.007 C408.035,137.567 408.449,141.197 408.421,144.895 C408.362,152.398 411.469,154.836 418.673,153.057 C431.226,149.957 443.768,150.436 456.232,153.37 C461.211,154.543 466.149,156.168 469.761,160.569" fill="#FF7164"/>
    <path d="M517.337,205.45 C516.796,209.842 514.931,212.957 512.892,215.913 C509.872,220.291 506.568,224.472 503.497,228.815 C501.244,232.003 500.791,235.426 503.875,238.274 C506.725,240.905 509.848,240.528 512.909,238.165 C515.613,236.08 518.529,234.29 522.715,232.77 C519.64,238.959 515.573,243.128 511.449,247.297 C504.467,254.355 495.348,258.347 487.574,264.249 C486.144,265.335 485.411,264.326 484.553,263.874 C469.867,256.137 455.214,248.337 440.545,240.567 C439.516,240.021 438.453,239.64 438.12,238.296 C434.817,224.947 430.242,211.848 430.238,197.859 C430.237,196.88 430.402,195.902 430.569,194.044 C434.644,197.906 435.649,202.547 436.966,206.919 C437.616,209.075 438.213,211.013 440.238,212.232 C444.256,214.651 448.351,212.522 450.157,207.513 C454.379,195.806 461.082,185.568 469.33,176.311 C469.742,175.848 470.337,175.547 471.098,174.986 C473.578,180.34 471.235,185.334 470.935,190.327 C470.776,192.975 470.419,195.61 470.272,198.258 C470.087,201.594 471.386,204.137 474.696,205.222 C477.969,206.295 480.524,205.056 482.535,202.407 C485.65,198.301 488.678,194.111 492.607,190.715 C493.438,189.997 494.323,188.75 495.578,189.345 C496.873,189.959 496.289,191.438 496.198,192.471 C495.712,197.985 493.56,203.085 491.925,208.297 C490.789,211.918 491.037,214.971 494.394,217.02 C497.748,219.067 500.627,217.988 503.256,215.214 C507.051,211.21 511.427,207.935 517.337,205.45" fill="#FEF8EA"/>
    <path d="M110.523,255.26 C111.31,256.229 111.79,258.678 113.285,255.697 C116.034,250.217 120.211,245.85 125.093,242.358 C142.999,229.554 165.343,237.523 174.212,258.973 C182.653,279.388 170.165,295.792 157.053,302.668 C147.066,307.905 136.653,305.449 126.591,301.771 C125.043,301.205 123.681,300.101 121.914,300.175 C115.791,285.793 112.278,270.75 110.523,255.26" fill="#FFCEB4"/>
    <path d="M383.288,306.078 C382.776,305.168 382.067,304.524 381.015,304.286 C366.487,301.011 357.495,283.604 356.315,273.216 C354.521,257.413 363.049,246.812 375.517,239.266 C386.068,232.881 405.089,236.644 415.555,246.003 C416.417,246.774 417.339,247.478 418.233,248.214 C408.276,268.524 396.261,287.59 383.288,306.078" fill="#FFCEB4"/>
    <path d="M115.831,530.86 C115.704,515.985 125.68,503.25 138.095,501.492 C140.834,501.104 143.456,501.523 145.961,502.371 C150.667,503.963 151.786,509.012 148.36,512.645 C147.106,513.975 145.601,515.087 144.456,516.497 C142.01,519.509 142.003,522.827 144.684,525.522 C147.178,528.028 150.318,528.101 153.298,525.944 C154.106,525.36 154.86,524.701 155.654,524.098 C157.081,523.015 158.801,522.165 159.952,524.04 C161.152,525.993 160.574,527.998 158.305,528.972 C156.95,529.554 155.423,529.727 153.989,530.138 C148.823,531.616 147.248,537.087 150.86,541.1 C151.747,542.085 152.826,542.895 153.788,543.816 C158.692,548.512 158.598,550.491 153.281,554.925 C144.71,562.073 133.129,561.559 125.325,553.54 C118.992,547.03 116.127,539.039 115.831,530.86" fill="#FEF8EA"/>
    <path d="M492.955,280.435 C492.333,299.405 490.181,317.31 481.053,333.6 C472.056,349.655 458.256,359.487 440.208,364.921 C457.929,336.537 475.272,308.758 492.955,280.435" fill="#DCAE53"/>
    <path d="M266.023,458.224 C259.489,447.505 253.464,437.576 247.383,427.682 C246.177,425.72 245.414,424.582 248.703,423.73 C255.35,422.008 260.596,417.948 264.495,412.28 C265.62,410.645 266.362,409.692 268.005,411.862 C272.543,417.852 278.516,421.915 286.139,424.324 C279.438,435.617 272.893,446.646 266.023,458.224" fill="#FEFEFE"/>
    <path d="M168.442,512.927 C164.697,511.757 163.488,509.848 163.19,506.527 C162.234,495.896 155.637,489.873 143.341,488.642 C139.696,488.277 138.243,486.972 137.314,483.665 C135.202,476.145 132.828,468.694 130.346,461.287 C129.458,458.636 129.429,457.179 132.657,456.395 C137.33,455.26 141.895,453.656 146.467,452.133 C148.403,451.489 149.483,451.804 150.13,453.905 C156.141,473.409 162.216,492.893 168.442,512.927" fill="#FFC6A5"/>
    <path d="M92.036,241.212 C94.472,241.079 96.403,242.007 96.614,246.439 C97.11,256.859 98.512,267.231 101.103,277.375 C101.94,280.652 101.179,281.866 97.646,281.673 C88.319,281.165 82.859,276.944 80.891,267.706 C79.498,261.165 79.491,254.503 81.571,248.043 C82.988,243.64 86.085,241.213 92.036,241.212" fill="#FEF8EA"/>
    <path d="M173.869,530.167 C177.625,542.205 181.123,553.626 184.786,564.995 C185.593,567.498 185.587,568.942 182.605,569.725 C178.115,570.903 173.711,572.423 169.309,573.912 C166.702,574.794 165.657,573.982 164.707,571.351 C163.155,567.049 162.676,563.72 166.367,559.846 C171.184,554.79 172.254,548.278 168.873,541.845 C167.606,539.436 167.899,538.22 169.662,536.424 C171.23,534.826 172.23,532.67 173.869,530.167" fill="#FFC6A5"/>
    <path d="M223.281,397.283 C222.681,393.984 223.717,392.889 227.849,393.665 C236.471,395.283 245.232,396.241 254.033,396.286 C256.919,396.301 257.947,396.681 256.589,399.87 C251.786,411.147 240.21,415.287 229.476,409.338 C225.242,406.992 223.328,403.404 223.281,397.283" fill="#FEFEFD"/>
    <path d="M292.145,411.644 C286.234,411.714 276.179,404.227 274.486,398.615 C273.799,396.337 275.454,396.426 276.65,396.416 C285.813,396.342 294.891,395.304 303.942,394.035 C306.459,393.682 307.049,394.528 307.16,396.902 C307.572,405.742 301.774,411.529 292.145,411.644" fill="#FEFEFD"/>
    <path d="M259.168,532.791 C257.01,526.509 258.766,522.102 263.931,520.841 C268.496,519.726 272.733,522.488 273.62,527.088 C274.024,529.184 273.342,531.002 272.444,532.801 C268.02,532.797 263.594,532.794 259.168,532.791" fill="#FDFDFD"/>
    <path d="M176.009,585.428 C178.603,584.604 180.9,583.874 183.466,583.059 C183.77,585.727 182.433,587.653 181.885,590.009 C179.457,589.063 177.719,587.528 176.009,585.428" fill="#F5ECDC"/>
    <path d="M296.405,294.13 C295.785,304.652 291.823,316.535 281.968,325.846 C271.193,336.028 257.318,335.738 246.914,325.185 C239.392,317.555 235.691,308.103 234.199,297.654 C233.813,294.949 234.152,292.091 231.091,290.276 C229.598,289.391 229.074,287.323 229.858,285.334 C230.674,283.262 232.074,282.076 234.343,282.028 C252.781,281.632 271.216,280.656 289.661,281.429 C295.702,281.682 296.564,283.174 296.405,294.13" fill="#6E4100"/>
    <path d="M211.124,230.567 C211.094,240.999 205.357,248.02 197.242,248.351 C187.471,248.751 179.274,237.953 181.56,227.549 C182.199,224.643 183.026,221.631 184.972,219.349 C188.518,215.191 191.774,211.165 190.375,205.079 C189.952,203.241 191.546,202.088 193.51,202.075 C195.552,202.06 196.856,203.365 196.622,205.171 C196.039,209.669 198.714,211.059 202.123,212.993 C209.03,216.909 210.515,224.055 211.124,230.567" fill="#6E4100"/>
    <path d="M351.19,230.917 C350.956,238.074 349.12,243.745 342.854,246.893 C337.803,249.431 332.769,249.102 328.385,245.472 C323.049,241.054 320.434,235.317 321.562,228.279 C321.981,225.662 322.61,222.961 324.253,220.844 C327.824,216.244 330.923,211.673 329.259,205.326 C328.802,203.583 330.093,202.156 332.155,202.066 C334.466,201.965 335.628,203.238 335.449,205.428 C335.131,209.328 337.033,210.744 340.568,212.234 C348.87,215.735 350.572,223.477 351.19,230.917" fill="#6E4100"/>
    <path d="M192.626,122.633 C196.51,122.526 199.881,123.831 202.727,126.314 C204.734,128.066 205.158,130.356 203.424,132.522 C201.851,134.485 199.882,134.509 197.644,133.266 C191.751,129.994 187.056,131.412 183.945,137.679 C182.489,140.61 180.825,142.713 177.538,141.122 C174.214,139.514 174.796,136.569 176.182,133.82 C179.595,127.053 185.089,123.315 192.626,122.633" fill="#6F4300"/>
    <path d="M263.525,226.025 C266.693,226.04 270.483,230.973 270.441,234.989 C270.409,238.039 268.512,239.528 265.854,239.906 C263.016,240.31 258.39,234.149 258.579,230.524 C258.715,227.916 260.808,226.012 263.525,226.025" fill="#704502"/>
    <path d="M273.797,498.397 C273.648,502.59 269.777,506.245 265.622,506.115 C261.293,505.98 258.044,502.428 258.138,497.933 C258.232,493.43 261.65,490.13 266.083,490.263 C270.329,490.39 273.945,494.203 273.797,498.397" fill="#FDFDFE"/>
    <path d="M259.112,609.675 C259.113,603.689 259.034,597.702 259.139,591.718 C259.219,587.108 261.653,584.586 265.651,584.639 C269.575,584.691 272.059,587.321 272.089,591.884 C272.169,603.688 272.164,615.494 272.092,627.299 C272.065,631.876 269.621,634.549 265.736,634.65 C261.626,634.757 259.191,632.072 259.128,627.133 C259.054,621.315 259.111,615.495 259.112,609.675" fill="#6E4100"/>
    <path d="M264.796,291.227 C270.961,291.227 277.127,291.26 283.292,291.209 C285.522,291.19 286.681,291.785 286.317,294.367 C284.955,304.028 281.799,312.839 274.061,319.259 C267.239,324.92 260.747,324.618 254.477,318.479 C247.734,311.877 245.003,303.429 243.845,294.299 C243.512,291.668 245.029,291.687 246.827,291.694 C252.818,291.717 258.809,291.703 264.799,291.703 C264.798,291.544 264.797,291.385 264.796,291.227" fill="#FEFEFE"/>
  </g>
</svg>
