<?xml version="1.0" encoding="UTF-8" standalone="no"?>
<!-- Created with Inkscape (http://www.inkscape.org/) -->
<svg xmlns:dc="http://purl.org/dc/elements/1.1/" xmlns:cc="http://creativecommons.org/ns#" xmlns:rdf="http://www.w3.org/1999/02/22-rdf-syntax-ns#" xmlns:svg="http://www.w3.org/2000/svg" xmlns="http://www.w3.org/2000/svg" xmlns:sodipodi="http://sodipodi.sourceforge.net/DTD/sodipodi-0.dtd" xmlns:inkscape="http://www.inkscape.org/namespaces/inkscape" viewBox="0 0 340 309.99998" id="svg2" version="1.1" inkscape:version="0.91pre3 r13670" sodipodi:docname="diploma.svg">
  <defs id="defs4"/>
  <sodipodi:namedview id="base" pagecolor="#ffffff" bordercolor="#666666" borderopacity="1.0" inkscape:pageopacity="0.0" inkscape:pageshadow="2" inkscape:zoom="0.98994949" inkscape:cx="-14.335529" inkscape:cy="242.77051" inkscape:document-units="px" inkscape:current-layer="layer1" showgrid="false" height="300mm" units="px" inkscape:window-width="1366" inkscape:window-height="705" inkscape:window-x="-8" inkscape:window-y="-8" inkscape:window-maximized="1"/>
  <metadata id="metadata7">
    <rdf:RDF>
      <cc:Work rdf:about="">
        <dc:format>image/svg+xml</dc:format>
        <dc:type rdf:resource="http://purl.org/dc/dcmitype/StillImage"/>
        <dc:title/>
      </cc:Work>
    </rdf:RDF>
  </metadata>
  <g inkscape:label="Layer 1" inkscape:groupmode="layer" id="layer1" transform="translate(0,-742.36209)">
    <g id="g4166" transform="translate(9.0913729,-3.0304577)">
      <path sodipodi:nodetypes="ccccc" inkscape:connector-curvature="0" id="path3336" d="m 11.56195,808.17379 c 25.21352,-18.69662 40.57825,-39.85544 94.28571,-51.42857 40.78521,92.8481 136.13168,117.42117 217.14286,160 -71.3832,18.86624 -136.01415,46.17279 -177.14286,102.85708 C 104.90151,946.087 65.489293,871.30827 11.56195,808.17379 Z" style="fill:#ffffff;fill-rule:evenodd;stroke:#000000;stroke-width:4;stroke-linecap:butt;stroke-linejoin:miter;stroke-opacity:1"/>
      <path sodipodi:nodetypes="ccc" inkscape:connector-curvature="0" id="path3338" d="m 302.99052,925.31664 c -0.81903,42.23237 -61.98773,112.03316 -131.42857,119.99996 -109.799487,2.2148 66.98521,-85.73201 83.57143,-72.85709" style="fill:none;fill-rule:evenodd;stroke:#000000;stroke-width:4;stroke-linecap:butt;stroke-linejoin:miter;stroke-opacity:1"/>
      <path sodipodi:nodetypes="ccccc" inkscape:connector-curvature="0" id="path3342" d="M 134.41909,1038.888 C 97.995763,954.35378 59.179213,874.60592 9.4190901,816.74522 l 3.5714299,-7.85715 c 55.232283,70.71429 93.22362,141.42857 132.85714,212.14283 -6.69835,5.3747 -12.34705,10.9592 -11.42857,17.8571 z" style="fill:none;fill-rule:evenodd;stroke:#000000;stroke-width:4;stroke-linecap:butt;stroke-linejoin:miter;stroke-opacity:1"/>
      <path sodipodi:nodetypes="ccccc" inkscape:connector-curvature="0" id="path3346" d="m 57.34186,883.26044 c 29.907263,-38.42607 41.297013,-47.89249 97.84844,-59.6744 l 30.19433,19.60261 c -55.60544,18.45481 -70.79101,32.74436 -100.185617,88.64321 z" style="fill:#000000;fill-rule:evenodd;stroke:#000000;stroke-width:1px;stroke-linecap:butt;stroke-linejoin:miter;stroke-opacity:1"/>
      <path inkscape:connector-curvature="0" id="path3348" d="m 255.13337,972.4595 -22.85714,-21.42857 -0.71428,-1.42857" style="fill:none;fill-rule:evenodd;stroke:#000000;stroke-width:4;stroke-linecap:butt;stroke-linejoin:miter;stroke-opacity:1"/>
      <path sodipodi:nodetypes="cccccccc" inkscape:connector-curvature="0" id="path3356" d="M 114.14724,842.25048 C 72.730983,781.64132 61.619303,775.58041 61.619303,775.58041 l 0,0 35.35534,6.06091 19.192897,-31.31473 22.22336,76.77159 -26.26397,16.16245 z" style="fill:#000000;fill-rule:evenodd;stroke:#000000;stroke-width:1px;stroke-linecap:butt;stroke-linejoin:miter;stroke-opacity:1"/>
      <path style="fill:#000000;fill-rule:evenodd;stroke:#000000;stroke-width:1px;stroke-linecap:butt;stroke-linejoin:miter;stroke-opacity:1" d="m 142.4315,837.19971 c 41.41626,60.60916 52.52794,66.67007 52.52794,66.67007 l 0,0 -35.35534,-6.06091 -19.1929,31.31473 -22.22336,-76.77159 26.26397,-16.16245 z" id="path3358" inkscape:connector-curvature="0" sodipodi:nodetypes="cccccccc"/>
      <path transform="translate(0,752.36207)" inkscape:connector-curvature="0" id="path3360" d="m 152.89861,289.66408 c -15.67549,-2.50036 -18.54583,-7.61157 -8.99544,-16.01816 2.50175,-2.20214 4.54864,-4.44172 4.54864,-4.97685 0,-0.53513 3.58392,-3.55342 7.96428,-6.7073 26.66105,-19.1961 74.43922,-40.04183 92.77292,-40.47704 9.4711,-0.22483 9.16549,-1.55144 -3.02951,-13.15122 l -10.88371,-10.35249 9.87356,-4.36461 c 13.83958,-6.1178 22.79656,-9.5649 39.63519,-15.25364 8.03514,-2.71457 14.74002,-4.93559 14.89975,-4.93559 0.15971,0 0.2904,1.41173 0.2904,3.13718 0,10.09264 -9.71411,31.90614 -20.87034,46.86537 -13.38477,17.94743 -34.82166,37.07854 -53.96527,48.1607 -24.92552,14.42928 -52.24209,21.26354 -72.24047,18.07365 z" style="opacity:1;fill:#ffffff;fill-opacity:1;stroke:#ffffff;stroke-width:4;stroke-miterlimit:4;stroke-dasharray:none;stroke-opacity:1"/>
      <path transform="translate(0,752.36207)" inkscape:connector-curvature="0" id="path3362" d="m 168.68404,244.56239 c 14.8921,-15.14205 37.6736,-31.67574 57.87512,-42.00287 l 3.86114,-1.97384 8.64572,7.84918 8.64572,7.84918 -6.50559,1.20069 c -16.73171,3.08804 -47.87796,16.05213 -70.03002,29.14879 -4.25643,2.51647 -8.0292,4.5754 -8.38394,4.5754 -0.35473,0 2.2966,-2.99094 5.89185,-6.64653 z" style="opacity:1;fill:#ffffff;fill-opacity:1;stroke:#ffffff;stroke-width:2;stroke-miterlimit:4;stroke-dasharray:none;stroke-opacity:1"/>
      <path transform="translate(0,752.36207)" inkscape:connector-curvature="0" id="path4164" d="m 125.74756,260.55283 c -9.63683,-21.87054 -22.10417,-48.49915 -31.278457,-66.80673 -5.34536,-10.66683 -7.119744,-15.17759 -6.672043,-16.96137 0.765975,-3.05189 1.774243,-2.43464 4.843981,2.96543 1.339291,2.35599 5.983457,10.42029 10.320369,17.92068 4.33691,7.50038 14.87481,26.0883 23.41755,41.30649 l 15.53225,27.66942 -4.17615,5.41307 c -2.29689,2.97719 -4.25622,5.41307 -4.35408,5.41307 -0.0978,0 -3.53289,-7.61403 -7.63342,-16.92006 z" style="opacity:1;fill:#ffffff;fill-opacity:1;stroke:#ffffff;stroke-width:2;stroke-miterlimit:4;stroke-dasharray:none;stroke-opacity:1"/>
    </g>
    <path style="fill:none;fill-rule:evenodd;stroke:#000000;stroke-width:2;stroke-linecap:butt;stroke-linejoin:miter;stroke-opacity:1" d="m 262.63966,968.51941 c 2.21147,44.08679 -99.42159,78.72859 -86.87312,47.47719 18.16164,-21.94007 53.4912,-26.57512 64.64976,-30.3046" id="path4178" inkscape:connector-curvature="0" sodipodi:nodetypes="ccc"/>
    <path style="fill:none;fill-rule:evenodd;stroke:#000000;stroke-width:2;stroke-linecap:butt;stroke-linejoin:miter;stroke-opacity:1" d="m 177.96278,1026.1847 -18.68782,-13.637" id="path4180" inkscape:connector-curvature="0" sodipodi:nodetypes="cc"/>
    <path sodipodi:nodetypes="cc" inkscape:connector-curvature="0" id="path4182" d="m 240.08716,985.52605 -15.15229,-9.0913" style="fill:none;fill-rule:evenodd;stroke:#000000;stroke-width:2;stroke-linecap:butt;stroke-linejoin:miter;stroke-opacity:1"/>
  </g>
</svg>
